<?xml version="1.0" encoding="iso-8859-1"?>
<!-- Generator: Adobe Illustrator 16.0.3, SVG Export Plug-In . SVG Version: 6.00 Build 0)  -->
<!DOCTYPE svg PUBLIC "-//W3C//DTD SVG 1.1//EN" "http://www.w3.org/Graphics/SVG/1.1/DTD/svg11.dtd">
<svg version="1.1" id="&#x5716;&#x5C64;_1" xmlns="http://www.w3.org/2000/svg" xmlns:xlink="http://www.w3.org/1999/xlink" x="0px"
	 y="0px" width="500px" height="500px" viewBox="860 107 500 500" style="enable-background:new 860 107 500 500;"
	 xml:space="preserve">
<g>
	<path style="fill:#06C755;" d="M1247.279,607H972.719C910.465,607,860,556.533,860,494.28V219.721
		C860,157.467,910.465,107,972.719,107h274.563C1309.535,107,1360,157.467,1360,219.721V494.28
		C1359.998,556.533,1309.533,607,1247.279,607"/>
	<path style="fill:#FFFFFF;" d="M1276.648,333.444c0-74.592-74.779-135.281-166.699-135.281
		c-91.914,0-166.699,60.689-166.699,135.281c0,66.875,59.305,122.88,139.414,133.465c5.428,1.173,12.818,3.581,14.686,8.223
		c1.683,4.212,1.101,10.815,0.539,15.071c0,0-1.955,11.765-2.379,14.271c-0.729,4.212-3.352,16.484,14.439,8.987
		c17.795-7.498,96.002-56.53,130.977-96.779h-0.008C1265.074,390.186,1276.648,363.298,1276.648,333.444"/>
	<path style="fill:#06C755;" d="M1221.191,376.518h-46.771h-0.063c-1.759,0-3.185-1.425-3.185-3.185v-0.051v-0.005v-72.622v-0.004
		v-0.069c0-1.758,1.427-3.183,3.185-3.183h0.063h46.771c1.75,0,3.184,1.431,3.184,3.183v11.821c0,1.758-1.426,3.183-3.184,3.183
		h-31.828v12.277h31.828c1.75,0,3.184,1.433,3.184,3.182v11.823c0,1.758-1.426,3.184-3.184,3.184h-31.828v12.277h31.828
		c1.75,0,3.184,1.433,3.184,3.181v11.821C1224.375,375.093,1222.949,376.518,1221.191,376.518"/>
	<path style="fill:#06C755;" d="M1047.951,376.518c1.758,0,3.182-1.425,3.182-3.185v-11.821c0-1.75-1.432-3.181-3.182-3.181h-31.83
		v-57.748c0-1.751-1.432-3.183-3.182-3.183h-11.822c-1.758,0-3.185,1.425-3.185,3.183v72.696v0.005v0.051
		c0,1.759,1.427,3.183,3.185,3.183h0.063H1047.951L1047.951,376.518z"/>
	<path style="fill:#06C755;" d="M1076.145,297.397h-11.821c-1.759,0-3.183,1.427-3.183,3.183v72.752
		c0,1.758,1.424,3.184,3.183,3.184h11.821c1.761,0,3.183-1.426,3.183-3.184V300.58
		C1079.326,298.824,1077.904,297.397,1076.145,297.397"/>
	<path style="fill:#06C755;" d="M1156.627,297.397h-11.822c-1.758,0-3.182,1.427-3.182,3.183v43.209l-33.285-44.95
		c-0.08-0.116-0.168-0.226-0.258-0.328c-0.006-0.008-0.015-0.016-0.021-0.024c-0.061-0.069-0.125-0.136-0.19-0.199l-0.062-0.055
		c-0.055-0.049-0.111-0.098-0.17-0.146l-0.088-0.064c-0.053-0.038-0.109-0.077-0.168-0.116c-0.033-0.02-0.064-0.038-0.098-0.057
		c-0.058-0.035-0.115-0.067-0.175-0.098c-0.034-0.017-0.067-0.033-0.104-0.05c-0.062-0.027-0.123-0.053-0.187-0.079
		c-0.032-0.012-0.067-0.024-0.102-0.037c-0.064-0.024-0.129-0.044-0.195-0.063c-0.037-0.012-0.074-0.021-0.113-0.031
		c-0.063-0.014-0.125-0.027-0.188-0.04c-0.045-0.009-0.088-0.015-0.135-0.023c-0.058-0.006-0.113-0.014-0.172-0.018
		c-0.056-0.006-0.111-0.008-0.168-0.009c-0.039-0.001-0.072-0.006-0.111-0.006h-11.756c-1.758,0-3.183,1.427-3.183,3.183v72.752
		c0,1.758,1.425,3.185,3.183,3.185h11.822c1.758,0,3.182-1.427,3.182-3.185v-43.196l33.33,45.008
		c0.229,0.325,0.51,0.592,0.819,0.803c0.015,0.008,0.023,0.018,0.035,0.025c0.064,0.043,0.134,0.084,0.201,0.12
		c0.031,0.021,0.062,0.035,0.094,0.052c0.05,0.028,0.101,0.051,0.154,0.073c0.053,0.026,0.103,0.048,0.156,0.068
		c0.033,0.015,0.068,0.026,0.1,0.036c0.072,0.025,0.146,0.05,0.222,0.07c0.016,0.004,0.03,0.01,0.045,0.012
		c0.266,0.07,0.543,0.111,0.832,0.111h11.756c1.758,0,3.182-1.426,3.182-3.184v-72.752
		C1159.809,298.824,1158.385,297.397,1156.627,297.397"/>
</g>
</svg>
