<?xml version="1.0" encoding="iso-8859-1"?>
<!-- Generator: Adobe Illustrator 16.0.3, SVG Export Plug-In . SVG Version: 6.00 Build 0)  -->
<!DOCTYPE svg PUBLIC "-//W3C//DTD SVG 1.1//EN" "http://www.w3.org/Graphics/SVG/1.1/DTD/svg11.dtd">
<svg version="1.1" id="&#x5716;&#x5C64;_1" xmlns="http://www.w3.org/2000/svg" xmlns:xlink="http://www.w3.org/1999/xlink" x="0px"
	 y="0px" width="500px" height="498.168px" viewBox="100 100 500 498.168" style="enable-background:new 100 100 500 498.168;"
	 xml:space="preserve">
<path style="fill:#0866FF;" d="M600,350c0-138.071-111.929-250-250-250c-138.071,0-250,111.929-250,250
	c0,117.245,80.715,215.622,189.606,242.638V426.396h-51.552V350h51.552v-32.919c0-85.092,38.508-124.532,122.048-124.532
	c15.838,0,43.167,3.105,54.347,6.211v69.254c-5.901-0.621-16.149-0.932-28.882-0.932c-40.993,0-56.832,15.528-56.832,55.9V350
	h81.659l-14.028,76.396h-67.631v171.772C504.073,583.218,600,477.818,600,350"/>
<path style="fill:#FFFFFF;" d="M447.918,426.396L461.946,350h-81.659v-27.019c0-40.372,15.838-55.899,56.831-55.899
	c12.732,0,22.98,0.31,28.882,0.931V198.76c-11.18-3.106-38.509-6.212-54.347-6.212c-83.539,0-122.048,39.441-122.048,124.533V350
	h-51.552v76.396h51.552v166.242C308.949,597.437,329.173,600,350,600c10.254,0,20.358-0.632,30.288-1.831V426.396H447.918z"/>
</svg>
